<mxfile host="Electron" agent="Mozilla/5.0 (Macintosh; Intel Mac OS X 10_15_7) AppleWebKit/537.36 (KHTML, like Gecko) draw.io/24.7.17 Chrome/128.0.6613.36 Electron/32.0.1 Safari/537.36" version="24.7.17">
  <diagram name="Page-1" id="1WE568LWMVHtuKM3JDja">
    <mxGraphModel dx="-642" dy="705" grid="1" gridSize="10" guides="1" tooltips="1" connect="1" arrows="1" fold="1" page="1" pageScale="1" pageWidth="827" pageHeight="1169" background="none" math="1" shadow="0">
      <root>
        <mxCell id="0" />
        <mxCell id="1" parent="0" />
        <mxCell id="pY1jZxHgJ3CI3KXNFTr0-70" value="" style="group" parent="1" vertex="1" connectable="0">
          <mxGeometry x="2020" y="180" width="70" height="80" as="geometry" />
        </mxCell>
        <mxCell id="pY1jZxHgJ3CI3KXNFTr0-71" value="" style="rounded=0;whiteSpace=wrap;html=1;fillColor=#f8cecc;strokeColor=#b85450;" parent="pY1jZxHgJ3CI3KXNFTr0-70" vertex="1">
          <mxGeometry width="10" height="80" as="geometry" />
        </mxCell>
        <mxCell id="pY1jZxHgJ3CI3KXNFTr0-72" value="" style="rounded=0;whiteSpace=wrap;html=1;fillColor=#f8cecc;strokeColor=#b85450;" parent="pY1jZxHgJ3CI3KXNFTr0-70" vertex="1">
          <mxGeometry x="10" y="10" width="10" height="60" as="geometry" />
        </mxCell>
        <mxCell id="pY1jZxHgJ3CI3KXNFTr0-73" value="" style="rounded=0;whiteSpace=wrap;html=1;fillColor=#f8cecc;strokeColor=#b85450;" parent="pY1jZxHgJ3CI3KXNFTr0-70" vertex="1">
          <mxGeometry x="20" y="20" width="10" height="40" as="geometry" />
        </mxCell>
        <mxCell id="pY1jZxHgJ3CI3KXNFTr0-74" value="" style="rounded=0;whiteSpace=wrap;html=1;fillColor=#f8cecc;strokeColor=#b85450;" parent="pY1jZxHgJ3CI3KXNFTr0-70" vertex="1">
          <mxGeometry x="30" y="30" width="10" height="20" as="geometry" />
        </mxCell>
        <mxCell id="pY1jZxHgJ3CI3KXNFTr0-75" value="" style="rounded=0;whiteSpace=wrap;html=1;fillColor=#f8cecc;strokeColor=#b85450;" parent="pY1jZxHgJ3CI3KXNFTr0-70" vertex="1">
          <mxGeometry x="40" y="20" width="10" height="40" as="geometry" />
        </mxCell>
        <mxCell id="pY1jZxHgJ3CI3KXNFTr0-76" value="" style="rounded=0;whiteSpace=wrap;html=1;fillColor=#f8cecc;strokeColor=#b85450;" parent="pY1jZxHgJ3CI3KXNFTr0-70" vertex="1">
          <mxGeometry x="50" y="10" width="10" height="60" as="geometry" />
        </mxCell>
        <mxCell id="pY1jZxHgJ3CI3KXNFTr0-77" value="" style="rounded=0;whiteSpace=wrap;html=1;fillColor=#f8cecc;strokeColor=#b85450;" parent="pY1jZxHgJ3CI3KXNFTr0-70" vertex="1">
          <mxGeometry x="60" width="10" height="80" as="geometry" />
        </mxCell>
        <mxCell id="pY1jZxHgJ3CI3KXNFTr0-83" value="" style="group" parent="1" vertex="1" connectable="0">
          <mxGeometry x="2310" y="180" width="70" height="80" as="geometry" />
        </mxCell>
        <mxCell id="pY1jZxHgJ3CI3KXNFTr0-84" value="" style="rounded=0;whiteSpace=wrap;html=1;fillColor=#f8cecc;strokeColor=#b85450;" parent="pY1jZxHgJ3CI3KXNFTr0-83" vertex="1">
          <mxGeometry width="10" height="80" as="geometry" />
        </mxCell>
        <mxCell id="pY1jZxHgJ3CI3KXNFTr0-85" value="" style="rounded=0;whiteSpace=wrap;html=1;fillColor=#f8cecc;strokeColor=#b85450;" parent="pY1jZxHgJ3CI3KXNFTr0-83" vertex="1">
          <mxGeometry x="10" y="10" width="10" height="60" as="geometry" />
        </mxCell>
        <mxCell id="pY1jZxHgJ3CI3KXNFTr0-86" value="" style="rounded=0;whiteSpace=wrap;html=1;fillColor=#f8cecc;strokeColor=#b85450;" parent="pY1jZxHgJ3CI3KXNFTr0-83" vertex="1">
          <mxGeometry x="20" y="20" width="10" height="40" as="geometry" />
        </mxCell>
        <mxCell id="pY1jZxHgJ3CI3KXNFTr0-87" value="" style="rounded=0;whiteSpace=wrap;html=1;fillColor=#f8cecc;strokeColor=#b85450;" parent="pY1jZxHgJ3CI3KXNFTr0-83" vertex="1">
          <mxGeometry x="30" y="30" width="10" height="20" as="geometry" />
        </mxCell>
        <mxCell id="pY1jZxHgJ3CI3KXNFTr0-88" value="" style="rounded=0;whiteSpace=wrap;html=1;fillColor=#f8cecc;strokeColor=#b85450;" parent="pY1jZxHgJ3CI3KXNFTr0-83" vertex="1">
          <mxGeometry x="40" y="20" width="10" height="40" as="geometry" />
        </mxCell>
        <mxCell id="pY1jZxHgJ3CI3KXNFTr0-89" value="" style="rounded=0;whiteSpace=wrap;html=1;fillColor=#f8cecc;strokeColor=#b85450;" parent="pY1jZxHgJ3CI3KXNFTr0-83" vertex="1">
          <mxGeometry x="50" y="10" width="10" height="60" as="geometry" />
        </mxCell>
        <mxCell id="pY1jZxHgJ3CI3KXNFTr0-90" value="" style="rounded=0;whiteSpace=wrap;html=1;fillColor=#f8cecc;strokeColor=#b85450;" parent="pY1jZxHgJ3CI3KXNFTr0-83" vertex="1">
          <mxGeometry x="60" width="10" height="80" as="geometry" />
        </mxCell>
        <mxCell id="pY1jZxHgJ3CI3KXNFTr0-92" value="&#xa;" style="group" parent="1" vertex="1" connectable="0">
          <mxGeometry x="1740" y="180" width="70" height="80" as="geometry" />
        </mxCell>
        <mxCell id="pY1jZxHgJ3CI3KXNFTr0-93" value="" style="rounded=0;whiteSpace=wrap;html=1;fillColor=#f8cecc;strokeColor=#b85450;" parent="pY1jZxHgJ3CI3KXNFTr0-92" vertex="1">
          <mxGeometry width="10" height="80" as="geometry" />
        </mxCell>
        <mxCell id="pY1jZxHgJ3CI3KXNFTr0-94" value="" style="rounded=0;whiteSpace=wrap;html=1;fillColor=#f8cecc;strokeColor=#b85450;" parent="pY1jZxHgJ3CI3KXNFTr0-92" vertex="1">
          <mxGeometry x="10" y="10" width="10" height="60" as="geometry" />
        </mxCell>
        <mxCell id="pY1jZxHgJ3CI3KXNFTr0-95" value="" style="rounded=0;whiteSpace=wrap;html=1;fillColor=#f8cecc;strokeColor=#b85450;" parent="pY1jZxHgJ3CI3KXNFTr0-92" vertex="1">
          <mxGeometry x="20" y="20" width="10" height="40" as="geometry" />
        </mxCell>
        <mxCell id="pY1jZxHgJ3CI3KXNFTr0-96" value="" style="rounded=0;whiteSpace=wrap;html=1;fillColor=#f8cecc;strokeColor=#b85450;" parent="pY1jZxHgJ3CI3KXNFTr0-92" vertex="1">
          <mxGeometry x="30" y="30" width="10" height="20" as="geometry" />
        </mxCell>
        <mxCell id="pY1jZxHgJ3CI3KXNFTr0-97" value="" style="rounded=0;whiteSpace=wrap;html=1;fillColor=#f8cecc;strokeColor=#b85450;" parent="pY1jZxHgJ3CI3KXNFTr0-92" vertex="1">
          <mxGeometry x="40" y="20" width="10" height="40" as="geometry" />
        </mxCell>
        <mxCell id="pY1jZxHgJ3CI3KXNFTr0-98" value="" style="rounded=0;whiteSpace=wrap;html=1;fillColor=#f8cecc;strokeColor=#b85450;" parent="pY1jZxHgJ3CI3KXNFTr0-92" vertex="1">
          <mxGeometry x="50" y="10" width="10" height="60" as="geometry" />
        </mxCell>
        <mxCell id="pY1jZxHgJ3CI3KXNFTr0-99" value="" style="rounded=0;whiteSpace=wrap;html=1;fillColor=#f8cecc;strokeColor=#b85450;" parent="pY1jZxHgJ3CI3KXNFTr0-92" vertex="1">
          <mxGeometry x="60" width="10" height="80" as="geometry" />
        </mxCell>
        <mxCell id="07WBwYcDPkEtQFHiIN-s-1" style="edgeStyle=orthogonalEdgeStyle;rounded=0;orthogonalLoop=1;jettySize=auto;html=1;entryX=0.5;entryY=0;entryDx=0;entryDy=0;" parent="1" source="pY1jZxHgJ3CI3KXNFTr0-109" target="tjQHPkJ3rP1CHwiMBpwy-109" edge="1">
          <mxGeometry relative="1" as="geometry" />
        </mxCell>
        <mxCell id="pY1jZxHgJ3CI3KXNFTr0-109" value="$$\hat{\epsilon}_{T}$$" style="text;html=1;align=center;verticalAlign=middle;whiteSpace=wrap;rounded=0;fontSize=18;" parent="1" vertex="1">
          <mxGeometry x="1830" y="210" width="20" height="20" as="geometry" />
        </mxCell>
        <mxCell id="07WBwYcDPkEtQFHiIN-s-9" style="edgeStyle=orthogonalEdgeStyle;rounded=0;orthogonalLoop=1;jettySize=auto;html=1;entryX=0.5;entryY=0;entryDx=0;entryDy=0;" parent="1" source="pY1jZxHgJ3CI3KXNFTr0-113" target="tjQHPkJ3rP1CHwiMBpwy-119" edge="1">
          <mxGeometry relative="1" as="geometry" />
        </mxCell>
        <mxCell id="pY1jZxHgJ3CI3KXNFTr0-113" value="$$\hat{\epsilon}_{t}$$" style="text;html=1;align=center;verticalAlign=middle;whiteSpace=wrap;rounded=0;fontSize=18;" parent="1" vertex="1">
          <mxGeometry x="2110" y="210" width="20" height="20" as="geometry" />
        </mxCell>
        <mxCell id="07WBwYcDPkEtQFHiIN-s-20" style="edgeStyle=orthogonalEdgeStyle;rounded=0;orthogonalLoop=1;jettySize=auto;html=1;" parent="1" source="pY1jZxHgJ3CI3KXNFTr0-115" target="07WBwYcDPkEtQFHiIN-s-16" edge="1">
          <mxGeometry relative="1" as="geometry" />
        </mxCell>
        <mxCell id="pY1jZxHgJ3CI3KXNFTr0-115" value="$$\hat{\epsilon}_{1}$$" style="text;html=1;align=center;verticalAlign=middle;whiteSpace=wrap;rounded=0;fontSize=18;" parent="1" vertex="1">
          <mxGeometry x="2400.74" y="210" width="20" height="20" as="geometry" />
        </mxCell>
        <mxCell id="pY1jZxHgJ3CI3KXNFTr0-119" value="&lt;font style=&quot;font-size: 16px;&quot;&gt;$$p_\theta(\mathbf{x}_{t-1} \vert \mathbf{x}_t) = \mathcal{N}(\mathbf{x}_{t-1}; \mu_\theta(\mathbf{x}_t, t), \boldsymbol{\Sigma}_\theta(\mathbf{x}_t, t))$$&lt;/font&gt;" style="endArrow=classic;html=1;rounded=0;strokeWidth=2;spacingTop=0;spacingLeft=2;spacingBottom=0;spacingRight=2;startArrow=none;startFill=0;endFill=1;labelBackgroundColor=default;labelBorderColor=none;" parent="1" edge="1">
          <mxGeometry x="0.0023" width="50" height="50" relative="1" as="geometry">
            <mxPoint x="1700" y="370" as="sourcePoint" />
            <mxPoint x="2500" y="370" as="targetPoint" />
            <mxPoint as="offset" />
          </mxGeometry>
        </mxCell>
        <mxCell id="pY1jZxHgJ3CI3KXNFTr0-150" value="$$\hat{\mathbf{x}}_{0}$$" style="ellipse;whiteSpace=wrap;html=1;aspect=fixed;fontSize=18;fillColor=default;" parent="1" vertex="1">
          <mxGeometry x="2480" y="300" width="40" height="40" as="geometry" />
        </mxCell>
        <mxCell id="pY1jZxHgJ3CI3KXNFTr0-162" value="$$...$$" style="ellipse;whiteSpace=wrap;html=1;aspect=fixed;fontSize=14;strokeColor=none;fillColor=none;" parent="1" vertex="1">
          <mxGeometry x="1950" y="300" width="30" height="30" as="geometry" />
        </mxCell>
        <mxCell id="pY1jZxHgJ3CI3KXNFTr0-163" value="$$...$$" style="ellipse;whiteSpace=wrap;html=1;aspect=fixed;fontSize=14;strokeColor=none;fillColor=none;" parent="1" vertex="1">
          <mxGeometry x="1890" y="173" width="42" height="42" as="geometry" />
        </mxCell>
        <mxCell id="pY1jZxHgJ3CI3KXNFTr0-276" value="$$f_{\theta&#39;}(\mathbf{x}_T, T)$$" style="text;html=1;align=center;verticalAlign=middle;whiteSpace=wrap;rounded=0;fontSize=14;" parent="1" vertex="1">
          <mxGeometry x="1740" y="260" width="70" height="30" as="geometry" />
        </mxCell>
        <mxCell id="pY1jZxHgJ3CI3KXNFTr0-277" value="$$f_{\theta&#39;}(\mathbf{x}_{t}, t)$$" style="text;html=1;align=center;verticalAlign=middle;whiteSpace=wrap;rounded=0;fontSize=14;" parent="1" vertex="1">
          <mxGeometry x="2020" y="260" width="70" height="30" as="geometry" />
        </mxCell>
        <mxCell id="pY1jZxHgJ3CI3KXNFTr0-278" value="$$f_{\theta&#39;} (\mathbf{x}_{1}, 1)$$" style="text;html=1;align=center;verticalAlign=middle;whiteSpace=wrap;rounded=0;fontSize=14;" parent="1" vertex="1">
          <mxGeometry x="2315" y="260" width="60" height="30" as="geometry" />
        </mxCell>
        <mxCell id="pY1jZxHgJ3CI3KXNFTr0-280" style="edgeStyle=orthogonalEdgeStyle;rounded=0;orthogonalLoop=1;jettySize=auto;html=1;entryX=0;entryY=0.25;entryDx=0;entryDy=0;" parent="1" source="pY1jZxHgJ3CI3KXNFTr0-279" target="pY1jZxHgJ3CI3KXNFTr0-93" edge="1">
          <mxGeometry relative="1" as="geometry" />
        </mxCell>
        <mxCell id="pY1jZxHgJ3CI3KXNFTr0-279" value="$$T$$" style="text;html=1;align=center;verticalAlign=middle;whiteSpace=wrap;rounded=0;fontSize=14;" parent="1" vertex="1">
          <mxGeometry x="1700" y="185" width="20" height="30" as="geometry" />
        </mxCell>
        <mxCell id="pY1jZxHgJ3CI3KXNFTr0-299" style="edgeStyle=orthogonalEdgeStyle;rounded=0;orthogonalLoop=1;jettySize=auto;html=1;entryX=0;entryY=0.25;entryDx=0;entryDy=0;" parent="1" source="pY1jZxHgJ3CI3KXNFTr0-281" target="pY1jZxHgJ3CI3KXNFTr0-71" edge="1">
          <mxGeometry relative="1" as="geometry" />
        </mxCell>
        <mxCell id="pY1jZxHgJ3CI3KXNFTr0-281" value="$$t$$" style="text;html=1;align=center;verticalAlign=middle;whiteSpace=wrap;rounded=0;fontSize=14;" parent="1" vertex="1">
          <mxGeometry x="1980" y="185" width="20" height="30" as="geometry" />
        </mxCell>
        <mxCell id="pY1jZxHgJ3CI3KXNFTr0-310" style="edgeStyle=orthogonalEdgeStyle;rounded=0;orthogonalLoop=1;jettySize=auto;html=1;entryX=0;entryY=0.25;entryDx=0;entryDy=0;" parent="1" source="pY1jZxHgJ3CI3KXNFTr0-284" target="pY1jZxHgJ3CI3KXNFTr0-84" edge="1">
          <mxGeometry relative="1" as="geometry" />
        </mxCell>
        <mxCell id="pY1jZxHgJ3CI3KXNFTr0-284" value="$$1$$" style="text;html=1;align=center;verticalAlign=middle;whiteSpace=wrap;rounded=0;fontSize=14;" parent="1" vertex="1">
          <mxGeometry x="2270" y="185" width="20" height="30" as="geometry" />
        </mxCell>
        <mxCell id="pY1jZxHgJ3CI3KXNFTr0-289" style="edgeStyle=orthogonalEdgeStyle;rounded=0;orthogonalLoop=1;jettySize=auto;html=1;entryX=0;entryY=0.5;entryDx=0;entryDy=0;" parent="1" source="pY1jZxHgJ3CI3KXNFTr0-77" target="pY1jZxHgJ3CI3KXNFTr0-113" edge="1">
          <mxGeometry relative="1" as="geometry" />
        </mxCell>
        <mxCell id="tjQHPkJ3rP1CHwiMBpwy-102" style="edgeStyle=orthogonalEdgeStyle;rounded=0;orthogonalLoop=1;jettySize=auto;html=1;entryX=0;entryY=0.75;entryDx=0;entryDy=0;exitX=1;exitY=0.5;exitDx=0;exitDy=0;" parent="1" source="tjQHPkJ3rP1CHwiMBpwy-76" target="pY1jZxHgJ3CI3KXNFTr0-93" edge="1">
          <mxGeometry relative="1" as="geometry">
            <Array as="points">
              <mxPoint x="1694" y="240" />
            </Array>
          </mxGeometry>
        </mxCell>
        <mxCell id="tjQHPkJ3rP1CHwiMBpwy-76" value="$$\mathbf{x}_{T}$$" style="ellipse;whiteSpace=wrap;html=1;aspect=fixed;fontSize=20;fillColor=default;" parent="1" vertex="1">
          <mxGeometry x="1680" y="220" width="40" height="40" as="geometry" />
        </mxCell>
        <mxCell id="tjQHPkJ3rP1CHwiMBpwy-112" style="edgeStyle=orthogonalEdgeStyle;rounded=0;orthogonalLoop=1;jettySize=auto;html=1;entryX=0;entryY=0.75;entryDx=0;entryDy=0;exitX=0.5;exitY=1;exitDx=0;exitDy=0;" parent="1" source="tjQHPkJ3rP1CHwiMBpwy-77" target="pY1jZxHgJ3CI3KXNFTr0-71" edge="1">
          <mxGeometry relative="1" as="geometry">
            <Array as="points">
              <mxPoint x="1979.75" y="240" />
            </Array>
          </mxGeometry>
        </mxCell>
        <mxCell id="tjQHPkJ3rP1CHwiMBpwy-118" style="edgeStyle=orthogonalEdgeStyle;rounded=0;orthogonalLoop=1;jettySize=auto;html=1;entryX=0;entryY=0.5;entryDx=0;entryDy=0;" parent="1" source="07WBwYcDPkEtQFHiIN-s-11" target="tjQHPkJ3rP1CHwiMBpwy-117" edge="1">
          <mxGeometry relative="1" as="geometry">
            <Array as="points">
              <mxPoint x="2000" y="320" />
            </Array>
          </mxGeometry>
        </mxCell>
        <mxCell id="tjQHPkJ3rP1CHwiMBpwy-77" value="$$\mathbf{x}_{t}$$" style="ellipse;whiteSpace=wrap;html=1;aspect=fixed;fontSize=18;fillColor=default;" parent="1" vertex="1">
          <mxGeometry x="1960" y="221" width="40" height="40" as="geometry" />
        </mxCell>
        <mxCell id="tjQHPkJ3rP1CHwiMBpwy-129" style="edgeStyle=orthogonalEdgeStyle;rounded=0;orthogonalLoop=1;jettySize=auto;html=1;entryX=0;entryY=0.75;entryDx=0;entryDy=0;" parent="1" source="tjQHPkJ3rP1CHwiMBpwy-84" target="pY1jZxHgJ3CI3KXNFTr0-84" edge="1">
          <mxGeometry relative="1" as="geometry">
            <Array as="points">
              <mxPoint x="2270" y="240" />
            </Array>
          </mxGeometry>
        </mxCell>
        <mxCell id="tjQHPkJ3rP1CHwiMBpwy-84" value="$$\mathbf{x}_{1}$$" style="ellipse;whiteSpace=wrap;html=1;aspect=fixed;fontSize=18;fillColor=default;" parent="1" vertex="1">
          <mxGeometry x="2250" y="221" width="40" height="40" as="geometry" />
        </mxCell>
        <mxCell id="tjQHPkJ3rP1CHwiMBpwy-101" style="edgeStyle=orthogonalEdgeStyle;rounded=0;orthogonalLoop=1;jettySize=auto;html=1;entryX=0;entryY=0.5;entryDx=0;entryDy=0;" parent="1" source="pY1jZxHgJ3CI3KXNFTr0-99" target="pY1jZxHgJ3CI3KXNFTr0-109" edge="1">
          <mxGeometry relative="1" as="geometry" />
        </mxCell>
        <mxCell id="tjQHPkJ3rP1CHwiMBpwy-106" value="$$\hat{\mathbf{x}}_{T-1}$$" style="ellipse;whiteSpace=wrap;html=1;aspect=fixed;fontSize=14;fillColor=default;" parent="1" vertex="1">
          <mxGeometry x="1910" y="300" width="40" height="40" as="geometry" />
        </mxCell>
        <mxCell id="tjQHPkJ3rP1CHwiMBpwy-110" value="" style="edgeStyle=orthogonalEdgeStyle;rounded=0;orthogonalLoop=1;jettySize=auto;html=1;entryX=0;entryY=0.5;entryDx=0;entryDy=0;exitX=0.5;exitY=1;exitDx=0;exitDy=0;" parent="1" source="tjQHPkJ3rP1CHwiMBpwy-76" target="tjQHPkJ3rP1CHwiMBpwy-109" edge="1">
          <mxGeometry relative="1" as="geometry">
            <mxPoint x="1700" y="120" as="sourcePoint" />
            <mxPoint x="1950" y="320" as="targetPoint" />
            <Array as="points">
              <mxPoint x="1700" y="320" />
            </Array>
          </mxGeometry>
        </mxCell>
        <mxCell id="tjQHPkJ3rP1CHwiMBpwy-111" style="edgeStyle=orthogonalEdgeStyle;rounded=0;orthogonalLoop=1;jettySize=auto;html=1;entryX=0;entryY=0.5;entryDx=0;entryDy=0;" parent="1" source="07WBwYcDPkEtQFHiIN-s-2" target="tjQHPkJ3rP1CHwiMBpwy-106" edge="1">
          <mxGeometry relative="1" as="geometry" />
        </mxCell>
        <mxCell id="tjQHPkJ3rP1CHwiMBpwy-109" value="-" style="ellipse;whiteSpace=wrap;html=1;spacingTop=-2;" parent="1" vertex="1">
          <mxGeometry x="1830" y="310" width="20" height="20" as="geometry" />
        </mxCell>
        <mxCell id="tjQHPkJ3rP1CHwiMBpwy-116" style="edgeStyle=orthogonalEdgeStyle;rounded=0;orthogonalLoop=1;jettySize=auto;html=1;entryX=0;entryY=0.5;entryDx=0;entryDy=0;" parent="1" source="pY1jZxHgJ3CI3KXNFTr0-90" target="pY1jZxHgJ3CI3KXNFTr0-115" edge="1">
          <mxGeometry relative="1" as="geometry" />
        </mxCell>
        <mxCell id="tjQHPkJ3rP1CHwiMBpwy-117" value="$$\hat{\mathbf{x}}_{t-1}$$" style="ellipse;whiteSpace=wrap;html=1;aspect=fixed;fontSize=16;fillColor=default;" parent="1" vertex="1">
          <mxGeometry x="2190" y="300" width="40" height="40" as="geometry" />
        </mxCell>
        <mxCell id="tjQHPkJ3rP1CHwiMBpwy-120" value="" style="edgeStyle=orthogonalEdgeStyle;rounded=0;orthogonalLoop=1;jettySize=auto;html=1;entryX=0;entryY=0.5;entryDx=0;entryDy=0;exitX=0.5;exitY=1;exitDx=0;exitDy=0;" parent="1" source="tjQHPkJ3rP1CHwiMBpwy-77" target="tjQHPkJ3rP1CHwiMBpwy-119" edge="1">
          <mxGeometry relative="1" as="geometry">
            <mxPoint x="1979.75" y="120" as="sourcePoint" />
            <mxPoint x="2169.75" y="320" as="targetPoint" />
            <Array as="points">
              <mxPoint x="1980" y="320" />
            </Array>
          </mxGeometry>
        </mxCell>
        <mxCell id="tjQHPkJ3rP1CHwiMBpwy-119" value="-" style="ellipse;whiteSpace=wrap;html=1;spacingTop=-2;" parent="1" vertex="1">
          <mxGeometry x="2110" y="310" width="20" height="20" as="geometry" />
        </mxCell>
        <mxCell id="tjQHPkJ3rP1CHwiMBpwy-122" value="$$...$$" style="ellipse;whiteSpace=wrap;html=1;aspect=fixed;fontSize=14;strokeColor=none;fillColor=none;" parent="1" vertex="1">
          <mxGeometry x="2200" y="220" width="30" height="30" as="geometry" />
        </mxCell>
        <mxCell id="07WBwYcDPkEtQFHiIN-s-3" value="" style="edgeStyle=orthogonalEdgeStyle;rounded=0;orthogonalLoop=1;jettySize=auto;html=1;entryX=0;entryY=0.5;entryDx=0;entryDy=0;" parent="1" source="tjQHPkJ3rP1CHwiMBpwy-109" target="07WBwYcDPkEtQFHiIN-s-2" edge="1">
          <mxGeometry relative="1" as="geometry">
            <mxPoint x="1850" y="320" as="sourcePoint" />
            <mxPoint x="1890" y="320" as="targetPoint" />
          </mxGeometry>
        </mxCell>
        <mxCell id="07WBwYcDPkEtQFHiIN-s-2" value="+" style="ellipse;whiteSpace=wrap;html=1;spacingTop=-2;" parent="1" vertex="1">
          <mxGeometry x="1870" y="310" width="20" height="20" as="geometry" />
        </mxCell>
        <mxCell id="07WBwYcDPkEtQFHiIN-s-7" style="edgeStyle=orthogonalEdgeStyle;rounded=0;orthogonalLoop=1;jettySize=auto;html=1;entryX=0.5;entryY=0;entryDx=0;entryDy=0;" parent="1" source="07WBwYcDPkEtQFHiIN-s-5" target="07WBwYcDPkEtQFHiIN-s-2" edge="1">
          <mxGeometry relative="1" as="geometry" />
        </mxCell>
        <mxCell id="07WBwYcDPkEtQFHiIN-s-5" value="$$\sigma_{T} \cdot \mathbf{z}$$" style="text;html=1;align=center;verticalAlign=middle;whiteSpace=wrap;rounded=0;fontSize=18;" parent="1" vertex="1">
          <mxGeometry x="1855" y="250" width="50" height="20" as="geometry" />
        </mxCell>
        <mxCell id="07WBwYcDPkEtQFHiIN-s-25" style="edgeStyle=orthogonalEdgeStyle;rounded=0;orthogonalLoop=1;jettySize=auto;html=1;" parent="1" source="07WBwYcDPkEtQFHiIN-s-10" target="07WBwYcDPkEtQFHiIN-s-11" edge="1">
          <mxGeometry relative="1" as="geometry" />
        </mxCell>
        <mxCell id="07WBwYcDPkEtQFHiIN-s-10" value="$$\sigma_{t} \cdot \mathbf{z}$$" style="text;html=1;align=center;verticalAlign=middle;whiteSpace=wrap;rounded=0;fontSize=18;" parent="1" vertex="1">
          <mxGeometry x="2135" y="250" width="50" height="20" as="geometry" />
        </mxCell>
        <mxCell id="07WBwYcDPkEtQFHiIN-s-12" value="" style="edgeStyle=orthogonalEdgeStyle;rounded=0;orthogonalLoop=1;jettySize=auto;html=1;entryX=0;entryY=0.5;entryDx=0;entryDy=0;" parent="1" source="tjQHPkJ3rP1CHwiMBpwy-119" target="07WBwYcDPkEtQFHiIN-s-11" edge="1">
          <mxGeometry relative="1" as="geometry">
            <Array as="points" />
            <mxPoint x="2110" y="320" as="sourcePoint" />
            <mxPoint x="2170" y="320" as="targetPoint" />
          </mxGeometry>
        </mxCell>
        <mxCell id="07WBwYcDPkEtQFHiIN-s-11" value="+" style="ellipse;whiteSpace=wrap;html=1;spacingTop=-2;" parent="1" vertex="1">
          <mxGeometry x="2150" y="310" width="20" height="20" as="geometry" />
        </mxCell>
        <mxCell id="07WBwYcDPkEtQFHiIN-s-23" style="edgeStyle=orthogonalEdgeStyle;rounded=0;orthogonalLoop=1;jettySize=auto;html=1;" parent="1" source="07WBwYcDPkEtQFHiIN-s-14" target="tjQHPkJ3rP1CHwiMBpwy-97" edge="1">
          <mxGeometry relative="1" as="geometry" />
        </mxCell>
        <mxCell id="07WBwYcDPkEtQFHiIN-s-14" value="$$\sigma_{1} \cdot \mathbf{z}$$" style="text;html=1;align=center;verticalAlign=middle;whiteSpace=wrap;rounded=0;fontSize=18;" parent="1" vertex="1">
          <mxGeometry x="2425" y="260" width="50" height="20" as="geometry" />
        </mxCell>
        <mxCell id="07WBwYcDPkEtQFHiIN-s-17" value="" style="edgeStyle=orthogonalEdgeStyle;rounded=0;orthogonalLoop=1;jettySize=auto;html=1;entryX=0;entryY=0.5;entryDx=0;entryDy=0;exitX=0.5;exitY=1;exitDx=0;exitDy=0;" parent="1" source="tjQHPkJ3rP1CHwiMBpwy-84" target="07WBwYcDPkEtQFHiIN-s-16" edge="1">
          <mxGeometry relative="1" as="geometry">
            <Array as="points" />
            <mxPoint x="2270" y="261" as="sourcePoint" />
            <mxPoint x="2460" y="320" as="targetPoint" />
          </mxGeometry>
        </mxCell>
        <mxCell id="07WBwYcDPkEtQFHiIN-s-18" style="edgeStyle=orthogonalEdgeStyle;rounded=0;orthogonalLoop=1;jettySize=auto;html=1;entryX=0;entryY=0.5;entryDx=0;entryDy=0;" parent="1" source="tjQHPkJ3rP1CHwiMBpwy-97" target="pY1jZxHgJ3CI3KXNFTr0-150" edge="1">
          <mxGeometry relative="1" as="geometry" />
        </mxCell>
        <mxCell id="07WBwYcDPkEtQFHiIN-s-16" value="-" style="ellipse;whiteSpace=wrap;html=1;spacingTop=-2;" parent="1" vertex="1">
          <mxGeometry x="2400.74" y="310" width="20" height="20" as="geometry" />
        </mxCell>
        <mxCell id="07WBwYcDPkEtQFHiIN-s-19" value="" style="edgeStyle=orthogonalEdgeStyle;rounded=0;orthogonalLoop=1;jettySize=auto;html=1;entryX=0;entryY=0.5;entryDx=0;entryDy=0;" parent="1" source="07WBwYcDPkEtQFHiIN-s-16" target="tjQHPkJ3rP1CHwiMBpwy-97" edge="1">
          <mxGeometry relative="1" as="geometry">
            <mxPoint x="2421" y="320" as="sourcePoint" />
            <mxPoint x="2480" y="320" as="targetPoint" />
          </mxGeometry>
        </mxCell>
        <mxCell id="tjQHPkJ3rP1CHwiMBpwy-97" value="+" style="ellipse;whiteSpace=wrap;html=1;spacingTop=-2;" parent="1" vertex="1">
          <mxGeometry x="2440" y="310" width="20" height="20" as="geometry" />
        </mxCell>
        <mxCell id="07WBwYcDPkEtQFHiIN-s-24" value="$$...$$" style="ellipse;whiteSpace=wrap;html=1;aspect=fixed;fontSize=14;strokeColor=none;fillColor=none;" parent="1" vertex="1">
          <mxGeometry x="2230" y="300" width="30" height="30" as="geometry" />
        </mxCell>
      </root>
    </mxGraphModel>
  </diagram>
</mxfile>
